<svg version="1.1" id="Layer_1" xmlns="http://www.w3.org/2000/svg" xmlns:xlink="http://www.w3.org/1999/xlink" x="0px" y="0px"
	 width="100%" viewBox="0 0 1024 656" enable-background="new 0 0 1024 656" xml:space="preserve">
<path fill="#000000" opacity="1.000000" stroke="none" 
	d="
M659.000000,311.022736 
	C665.998291,311.010620 672.499451,311.111969 678.993652,310.943756 
	C682.665588,310.848694 684.035095,312.359497 683.999390,315.975983 
	C683.885925,327.471527 683.837280,338.970825 684.021606,350.464569 
	C684.092590,354.887939 682.265259,356.180908 678.046204,356.169342 
	C632.891846,356.045532 587.737000,356.069641 542.582336,356.021820 
	C535.345886,356.014160 535.332886,355.942841 535.332458,363.109467 
	C535.330017,407.764526 535.336304,452.419586 535.333130,497.074646 
	C535.332581,504.155762 535.317322,504.160034 528.067505,504.165680 
	C517.570251,504.173828 507.067993,503.986786 496.578064,504.266052 
	C491.958832,504.389038 490.572266,502.791748 490.592926,498.234314 
	C490.746155,464.410431 490.684357,430.585571 490.654358,396.761047 
	C490.652344,394.493042 491.135437,392.092224 489.716980,390.078247 
	C487.419128,389.435150 486.597992,391.247375 485.518921,392.329285 
	C460.696533,417.218475 435.874268,442.108154 411.167786,467.112213 
	C408.503906,469.808197 406.722900,469.725342 404.188629,467.128845 
	C396.392090,459.140869 388.661591,451.063354 380.449341,443.516998 
	C376.462860,439.853729 377.272980,437.706299 380.627930,434.393311 
	C399.951447,415.311737 419.106049,396.059143 438.326508,376.873108 
	C443.514832,371.694061 448.751160,366.562927 453.923065,361.367645 
	C455.046478,360.239166 456.647034,359.314178 456.337402,357.217804 
	C454.585968,355.406830 452.284729,356.123810 450.228973,356.120331 
	C416.737854,356.063385 383.246582,356.080292 349.755371,356.058319 
	C342.679718,356.053680 342.676758,356.012939 342.670593,348.784454 
	C342.661774,338.453827 342.660431,328.123169 342.650909,317.792542 
	C342.644836,311.186066 342.695374,311.069336 349.286072,311.064911 
	C393.108002,311.035431 436.929901,311.018066 480.751831,311.034973 
	C492.243469,311.039429 490.645813,311.167877 490.657928,300.974335 
	C490.709808,257.152435 490.681396,213.330460 490.691986,169.508499 
	C490.693573,162.880692 490.717316,162.886490 497.394836,162.883041 
	C507.892029,162.877594 518.397217,163.101868 528.882935,162.749039 
	C533.875549,162.581024 535.477112,164.035141 535.444275,169.174713 
	C535.227600,203.164505 535.314026,237.156326 535.348267,271.147430 
	C535.350220,273.067566 534.743042,275.149933 536.218933,276.951050 
	C538.896362,277.349701 539.973145,275.112793 541.405518,273.686951 
	C565.728577,249.473236 590.073303,225.280289 614.225403,200.896744 
	C617.751831,197.336533 619.960693,197.168396 623.453613,200.855057 
	C631.011780,208.832642 638.918640,216.486298 646.833679,224.116013 
	C649.682068,226.861679 649.418396,228.720596 646.653992,231.459290 
	C621.324524,256.552765 596.123962,281.776367 570.893677,306.969910 
	C569.973877,307.888397 569.134888,308.887817 567.188110,311.023407 
	C598.457886,311.023407 628.478943,311.023407 659.000000,311.022736 
z"/>
</svg>